<svg xmlns="http://www.w3.org/2000/svg" width="10" height="10" viewBox="0 0 10 10">
    <defs>
        <clipPath id="mhgj2iaiwa">
            <path data-name="Rectangle 15" transform="translate(-.203 -.203)" style="fill:#080404" d="M0 0h10v10H0z"/>
        </clipPath>
    </defs>
    <g data-name="Group 10">
        <g data-name="Group 9" transform="translate(.203 .202)" style="clip-path:url(#mhgj2iaiwa)">
            <path data-name="Path 3" d="M3.214.184a6.935 6.935 0 0 1 3.166 0 4.068 4.068 0 0 1 3.031 3.03 6.935 6.935 0 0 1 0 3.166A4.068 4.068 0 0 1 6.38 9.411a6.935 6.935 0 0 1-3.166 0A4.068 4.068 0 0 1 .184 6.38a6.935 6.935 0 0 1 0-3.166 4.068 4.068 0 0 1 3.03-3.03m.857 5.673a.306.306 0 1 0 .433.433l1.275-1.276a.306.306 0 0 0 0-.433L4.5 3.3a.306.306 0 0 0-.433.433L5.13 4.8 4.07 5.856z" style="fill-rule:evenodd;fill:#080404"/>
        </g>
    </g>
</svg>
