<svg xmlns="http://www.w3.org/2000/svg" width="21" height="21" viewBox="0 0 21 21">
  <defs>
    <style>
      .cls-1 {
        fill: #959595;
      }
    </style>
  </defs>
  <path id="Icon_metro-cancel" data-name="Icon metro-cancel" class="cls-1" d="M13.071,1.928a10.5,10.5,0,1,0,10.5,10.5,10.5,10.5,0,0,0-10.5-10.5Zm0,19.031A8.531,8.531,0,1,1,21.6,12.428,8.531,8.531,0,0,1,13.071,20.959ZM16.352,7.178l-3.281,3.281L9.789,7.178,7.821,9.147,11.1,12.428,7.821,15.709l1.969,1.969L13.071,14.4l3.281,3.281,1.969-1.969-3.281-3.281,3.281-3.281Z" transform="translate(-2.571 -1.928)"/>
</svg>
